<?xml version="1.0" encoding="UTF-8"?>
<svg version="1.1" xmlns="http://www.w3.org/2000/svg" viewBox="0 0 1024 1024">
<path d="M0 0 C39.34775058 -0.02286484 78.6955003 -0.04049744 118.04325619 -0.05106533 C122.68354125 -0.05231611 127.32382629 -0.05361042 131.96411133 -0.05493164 C132.88794898 -0.05519395 133.81178664 -0.05545626 134.76361937 -0.05572652 C149.74265437 -0.06008354 164.72168555 -0.06797127 179.70071828 -0.0771528 C195.0587214 -0.08648844 210.41672251 -0.09205542 225.77472836 -0.09408849 C235.25934853 -0.09546391 244.74395791 -0.09981548 254.22857476 -0.10791647 C260.72337242 -0.11318283 267.21816447 -0.11480455 273.71296411 -0.11350138 C277.46591423 -0.11285782 281.21884543 -0.11387744 284.97179222 -0.11920547 C289.03084424 -0.12492635 293.08985543 -0.1230012 297.14891052 -0.12025452 C298.9479958 -0.12462378 298.9479958 -0.12462378 300.78342623 -0.12908131 C301.86178651 -0.12709026 302.94014679 -0.12509921 304.05118465 -0.12304783 C304.98947359 -0.12342755 305.92776253 -0.12380727 306.89448446 -0.1241985 C309 0 309 0 310 1 C310.09803978 2.63586416 310.12555556 4.27598796 310.12584114 5.91478729 C310.12975276 7.52095248 310.12975276 7.52095248 310.13374341 9.15956545 C310.13039732 10.9459547 310.13039732 10.9459547 310.12698364 12.76843262 C310.12854363 14.02223205 310.13010362 15.27603148 310.13171089 16.56782484 C310.13590855 20.06392702 310.13381156 23.56000211 310.13072467 27.05610442 C310.12847256 30.82028756 310.13194923 34.58446587 310.13470459 38.34864807 C310.13916331 45.72898176 310.13818537 53.10930531 310.13529195 60.4896394 C310.13303832 66.48503206 310.13272522 72.48042186 310.13381577 78.47581482 C310.133969 79.32742651 310.13412223 80.1790382 310.13428011 81.0564563 C310.13459982 82.78620803 310.13492403 84.51595977 310.1352527 86.24571151 C310.13810779 102.48538588 310.13482001 118.72505461 310.12945233 134.96472806 C310.12498427 148.914802 310.12576019 162.86486762 310.13037109 176.81494141 C310.13571634 192.99445053 310.1378331 209.17395472 310.13475883 225.3534646 C310.13444026 227.07703813 310.13412589 228.80061165 310.13381577 230.52418518 C310.13366149 231.37233133 310.13350721 232.22047749 310.13334826 233.09432504 C310.13248296 239.08611352 310.13394627 245.07789889 310.13629532 251.06968689 C310.13909297 258.36650784 310.1383558 265.66331802 310.13301457 272.96013772 C310.13037709 276.68676495 310.12937329 280.41337419 310.13266373 284.1400013 C310.13616882 288.17053915 310.13199848 292.20103115 310.12698364 296.23156738 C310.12921436 297.42249355 310.13144509 298.61341971 310.13374341 299.84043455 C310.13113566 300.91121134 310.12852791 301.98198813 310.12584114 303.08521271 C310.12567879 304.01688405 310.12551644 304.94855538 310.12534916 305.90845919 C310 308 310 308 309 309 C307.35892315 309.09805159 305.71359876 309.12555559 304.06959534 309.12584114 C302.45820506 309.12975276 302.45820506 309.12975276 300.81426144 309.13374341 C299.02203577 309.13039732 299.02203577 309.13039732 297.19360352 309.12698364 C295.93572053 309.12854363 294.67783754 309.13010362 293.38183689 309.13171089 C289.87433317 309.13590857 286.36685644 309.13381155 282.85935259 309.13072467 C279.0828994 309.12847256 275.30645103 309.13194923 271.52999878 309.13470459 C264.12560163 309.13916332 256.7212146 309.13818536 249.31681705 309.13529195 C243.30187824 309.13303832 237.28694228 309.13272522 231.27200317 309.13381577 C229.9904226 309.13404561 229.9904226 309.13404561 228.68295151 309.13428011 C226.94756277 309.13459982 225.21217404 309.13492403 223.4767853 309.1352527 C207.18417582 309.13810779 190.89157195 309.13482001 174.59896338 309.12945233 C160.60340767 309.12498427 146.60786025 309.12576019 132.61230469 309.13037109 C116.38005785 309.13571634 100.14781594 309.1378331 83.91556835 309.13475883 C82.18637784 309.13444026 80.45718734 309.13412589 78.72799683 309.13381577 C77.87708656 309.13366149 77.0261763 309.13350721 76.14948088 309.13334826 C70.13815573 309.13248296 64.1268337 309.13394627 58.11550903 309.13629532 C50.79489953 309.13909297 43.47430075 309.13835581 36.15369248 309.13301457 C32.41491368 309.13037708 28.6761528 309.1293733 24.93737411 309.13266373 C20.89369914 309.1361688 16.85006985 309.13199849 12.80639648 309.12698364 C11.61157937 309.12921436 10.41676226 309.13144509 9.18573856 309.13374341 C8.11147838 309.13113566 7.03721819 309.12852791 5.93040466 309.12584114 C4.52834101 309.12559761 4.52834101 309.12559761 3.09795284 309.12534916 C1 309 1 309 0 308 C-0.09715518 306.35796093 -0.12371568 304.71171266 -0.12304783 303.06680202 C-0.12503888 301.99192514 -0.12702993 300.91704825 -0.12908131 299.80959934 C-0.12616847 298.61410011 -0.12325563 297.41860087 -0.12025452 296.18687439 C-0.12110894 294.92828584 -0.12196337 293.66969729 -0.12284368 292.37296969 C-0.12509101 288.86353294 -0.12106414 285.35412643 -0.11606562 281.84469354 C-0.11176469 278.06621636 -0.11320729 274.28774102 -0.1139679 270.50926208 C-0.11449336 263.95747915 -0.11134424 257.40570614 -0.10573006 250.8539257 C-0.09761807 241.38104145 -0.09500015 231.90816202 -0.09374207 222.43527467 C-0.09155107 207.06776828 -0.0848897 191.70026718 -0.07543945 176.33276367 C-0.06626656 161.4007978 -0.05918513 146.46883336 -0.05493164 131.53686523 C-0.05453756 130.15726736 -0.05453756 130.15726736 -0.05413551 128.74979883 C-0.05283051 124.13597552 -0.05156679 119.52215221 -0.05032361 114.90832889 C-0.03994952 76.60554889 -0.02232991 38.30277479 0 0 Z " fill="#AF5C0E" transform="translate(357,275)"/>
<path d="M0 0 C1.40287676 0.00056958 1.40287676 0.00056958 2.83409446 0.00115067 C3.90931043 -0.0008402 4.9845264 -0.00283108 6.09232467 -0.00488228 C7.28748482 -0.00196961 8.48264498 0.00094305 9.7140221 0.00394398 C11.59732731 0.00265995 11.59732731 0.00265995 13.51867908 0.00134999 C17.02666016 -0.0009047 20.53461101 0.00313631 24.04258825 0.00812577 C27.87492472 0.01247369 31.70725967 0.0110324 35.53959793 0.01030785 C42.98832331 0.00977486 50.4370367 0.01440509 57.88575899 0.02080918 C66.49655961 0.02799166 75.10735296 0.02880296 83.71815723 0.029594 C106.46657223 0.03485053 129.21498454 0.04881156 151.96339649 0.0616985 C202.76277149 0.0823235 253.56214649 0.1029485 305.90089649 0.1241985 C305.90089649 102.0941985 305.90089649 204.0641985 305.90089649 309.1241985 C229.70183399 309.155136 229.70183399 309.155136 151.96339649 309.1866985 C127.85740406 309.2003545 127.85740406 309.2003545 103.26442188 309.21428639 C83.71815723 309.21880299 83.71815723 309.21880299 74.582766 309.21964222 C68.16947292 309.22057807 61.75618846 309.22426019 55.34289783 309.22977406 C47.95599166 309.23611567 40.56909382 309.23904003 33.1821849 309.23764345 C29.39919374 309.23703804 25.61622121 309.23803302 21.83323342 309.24341363 C17.79348362 309.24912485 13.75377497 309.24720729 9.7140221 309.24445301 C7.92128187 309.24882201 7.92128187 309.24882201 6.09232467 309.25327927 C4.47950072 309.25029296 4.47950072 309.25029296 2.83409446 309.24724633 C1.89884329 309.24762605 0.96359212 309.24800577 0 309.24839699 C-2.09910351 309.1241985 -2.09910351 309.1241985 -3.09910351 308.1241985 C-3.19714329 306.48833434 -3.22465908 304.84821054 -3.22494465 303.2094112 C-3.22885627 301.60324602 -3.22885627 301.60324602 -3.23284692 299.96463305 C-3.23061619 298.77370688 -3.22838547 297.58278072 -3.22608715 296.35576588 C-3.22764714 295.10196645 -3.22920713 293.84816701 -3.2308144 292.55637366 C-3.23501206 289.06027148 -3.23291507 285.56419639 -3.22982818 282.06809407 C-3.22757607 278.30391093 -3.23105274 274.53973262 -3.2338081 270.77555043 C-3.23826682 263.39521674 -3.23728888 256.01489319 -3.23439546 248.63455909 C-3.23214183 242.63916644 -3.23182873 236.64377663 -3.23291928 230.64838368 C-3.23307251 229.79677199 -3.23322574 228.9451603 -3.23338362 228.0677422 C-3.23370333 226.33799046 -3.23402754 224.60823873 -3.23435621 222.87848699 C-3.2372113 206.63881262 -3.23392352 190.39914389 -3.22855584 174.15947044 C-3.22408778 160.2093965 -3.2248637 146.25933088 -3.2294746 132.30925709 C-3.23481985 116.12974796 -3.23693661 99.95024378 -3.23386234 83.77073389 C-3.23354377 82.04716037 -3.2332294 80.32358684 -3.23291928 78.60001332 C-3.232765 77.75186716 -3.23261072 76.90372101 -3.23245177 76.02987346 C-3.23158647 70.03808497 -3.23304978 64.04629961 -3.23539883 58.05451161 C-3.23819648 50.75769066 -3.23745931 43.46088048 -3.23211809 36.16406077 C-3.2294806 32.43743355 -3.2284768 28.71082431 -3.23176724 24.9841972 C-3.23527233 20.95365935 -3.23110199 16.92316734 -3.22608715 12.89263111 C-3.22831787 11.70170495 -3.2305486 10.51077878 -3.23284692 9.28376395 C-3.23023917 8.21298715 -3.22763142 7.14221036 -3.22494465 6.03898579 C-3.2247823 5.10731445 -3.22461995 4.17564311 -3.22445267 3.21573931 C-3.05444799 0.37908908 -2.83693108 0.16785383 0 0 Z " fill="#566A10" transform="translate(718.0991035103798,274.8758015036583)"/>
<path d="M0 0 C101.64 0 203.28 0 308 0 C308.66016894 8.58219623 309.14598273 16.91605563 309.13371277 25.48776245 C309.13597833 26.67407765 309.13824388 27.86039284 309.14057809 29.08265698 C309.1457671 32.33483675 309.14657102 35.58698125 309.14538372 38.83916378 C309.14517792 42.36194176 309.15071504 45.88471178 309.15544128 49.40748596 C309.16370697 56.29087464 309.16649417 63.17425476 309.16705366 70.05764799 C309.16753031 75.65224472 309.16959246 81.24683864 309.17275429 86.84143448 C309.18154598 102.72171604 309.18617543 118.60199087 309.18542381 134.48227488 C309.18536388 135.7633535 309.18536388 135.7633535 309.18530273 137.0703125 C309.18526185 137.92541248 309.18522097 138.78051245 309.18517885 139.66152455 C309.18477174 153.54284631 309.19436168 167.42414103 309.2084411 181.30545495 C309.22280158 195.57682885 309.22971162 209.84818955 309.22884732 224.11957085 C309.22851547 232.12493098 309.23125799 240.13026269 309.24202538 248.1356163 C309.25112554 254.9445007 309.25330923 261.75334374 309.24651595 268.56223159 C309.24324968 272.03452499 309.2431982 275.50673902 309.2518692 278.97902489 C309.25956251 282.74413437 309.25496193 286.50903458 309.24723816 290.2741394 C309.25238172 291.36936602 309.25752529 292.46459263 309.26282471 293.59300792 C309.25822592 294.6056295 309.25362712 295.61825107 309.24888897 296.66155815 C309.24921502 297.96387078 309.24921502 297.96387078 309.24954766 299.29249275 C309 302 309 302 307 309 C205.69 309 104.38 309 0 309 C0 207.03 0 105.06 0 0 Z " fill="#AFAFB1" transform="translate(0,275)"/>
<path d="M0 0 C39.34775058 -0.02286484 78.6955003 -0.04049744 118.04325619 -0.05106533 C122.68354125 -0.05231611 127.32382629 -0.05361042 131.96411133 -0.05493164 C132.88794898 -0.05519395 133.81178664 -0.05545626 134.76361937 -0.05572652 C149.74265437 -0.06008354 164.72168555 -0.06797127 179.70071828 -0.0771528 C195.0587214 -0.08648844 210.41672251 -0.09205542 225.77472836 -0.09408849 C235.25934853 -0.09546391 244.74395791 -0.09981548 254.22857476 -0.10791647 C260.72337242 -0.11318283 267.21816447 -0.11480455 273.71296411 -0.11350138 C277.46591423 -0.11285782 281.21884543 -0.11387744 284.97179222 -0.11920547 C289.03084424 -0.12492635 293.08985543 -0.1230012 297.14891052 -0.12025452 C298.9479958 -0.12462378 298.9479958 -0.12462378 300.78342623 -0.12908131 C301.86178651 -0.12709026 302.94014679 -0.12509921 304.05118465 -0.12304783 C304.98947359 -0.12342755 305.92776253 -0.12380727 306.89448446 -0.1241985 C309 0 309 0 310 1 C310.09803978 2.63586416 310.12555556 4.27598796 310.12584114 5.91478729 C310.12975276 7.52095248 310.12975276 7.52095248 310.13374341 9.15956545 C310.13039732 10.9459547 310.13039732 10.9459547 310.12698364 12.76843262 C310.12854363 14.02223205 310.13010362 15.27603148 310.13171089 16.56782484 C310.13590855 20.06392702 310.13381156 23.56000211 310.13072467 27.05610442 C310.12847256 30.82028756 310.13194923 34.58446587 310.13470459 38.34864807 C310.13916331 45.72898176 310.13818537 53.10930531 310.13529195 60.4896394 C310.13303832 66.48503206 310.13272522 72.48042186 310.13381577 78.47581482 C310.133969 79.32742651 310.13412223 80.1790382 310.13428011 81.0564563 C310.13459982 82.78620803 310.13492403 84.51595977 310.1352527 86.24571151 C310.13810779 102.48538588 310.13482001 118.72505461 310.12945233 134.96472806 C310.12498427 148.914802 310.12576019 162.86486762 310.13037109 176.81494141 C310.13571634 192.99445053 310.1378331 209.17395472 310.13475883 225.3534646 C310.13444026 227.07703813 310.13412589 228.80061165 310.13381577 230.52418518 C310.13366149 231.37233133 310.13350721 232.22047749 310.13334826 233.09432504 C310.13248296 239.08611352 310.13394627 245.07789889 310.13629532 251.06968689 C310.13909297 258.36650784 310.1383558 265.66331802 310.13301457 272.96013772 C310.13037709 276.68676495 310.12937329 280.41337419 310.13266373 284.1400013 C310.13616882 288.17053915 310.13199848 292.20103115 310.12698364 296.23156738 C310.12921436 297.42249355 310.13144509 298.61341971 310.13374341 299.84043455 C310.13113566 300.91121134 310.12852791 301.98198813 310.12584114 303.08521271 C310.12567879 304.01688405 310.12551644 304.94855538 310.12534916 305.90845919 C310 308 310 308 309 309 C307.35892315 309.09805159 305.71359876 309.12555559 304.06959534 309.12584114 C302.45820506 309.12975276 302.45820506 309.12975276 300.81426144 309.13374341 C299.02203577 309.13039732 299.02203577 309.13039732 297.19360352 309.12698364 C295.93572053 309.12854363 294.67783754 309.13010362 293.38183689 309.13171089 C289.87433317 309.13590857 286.36685644 309.13381155 282.85935259 309.13072467 C279.0828994 309.12847256 275.30645103 309.13194923 271.52999878 309.13470459 C264.12560163 309.13916332 256.7212146 309.13818536 249.31681705 309.13529195 C243.30187824 309.13303832 237.28694228 309.13272522 231.27200317 309.13381577 C229.9904226 309.13404561 229.9904226 309.13404561 228.68295151 309.13428011 C226.94756277 309.13459982 225.21217404 309.13492403 223.4767853 309.1352527 C207.18417582 309.13810779 190.89157195 309.13482001 174.59896338 309.12945233 C160.60340767 309.12498427 146.60786025 309.12576019 132.61230469 309.13037109 C116.38005785 309.13571634 100.14781594 309.1378331 83.91556835 309.13475883 C82.18637784 309.13444026 80.45718734 309.13412589 78.72799683 309.13381577 C77.87708656 309.13366149 77.0261763 309.13350721 76.14948088 309.13334826 C70.13815573 309.13248296 64.1268337 309.13394627 58.11550903 309.13629532 C50.79489953 309.13909297 43.47430075 309.13835581 36.15369248 309.13301457 C32.41491368 309.13037708 28.6761528 309.1293733 24.93737411 309.13266373 C20.89369914 309.1361688 16.85006985 309.13199849 12.80639648 309.12698364 C11.61157937 309.12921436 10.41676226 309.13144509 9.18573856 309.13374341 C8.11147838 309.13113566 7.03721819 309.12852791 5.93040466 309.12584114 C4.52834101 309.12559761 4.52834101 309.12559761 3.09795284 309.12534916 C1 309 1 309 0 308 C-0.09715518 306.35796093 -0.12371568 304.71171266 -0.12304783 303.06680202 C-0.12503888 301.99192514 -0.12702993 300.91704825 -0.12908131 299.80959934 C-0.12616847 298.61410011 -0.12325563 297.41860087 -0.12025452 296.18687439 C-0.12110894 294.92828584 -0.12196337 293.66969729 -0.12284368 292.37296969 C-0.12509101 288.86353294 -0.12106414 285.35412643 -0.11606562 281.84469354 C-0.11176469 278.06621636 -0.11320729 274.28774102 -0.1139679 270.50926208 C-0.11449336 263.95747915 -0.11134424 257.40570614 -0.10573006 250.8539257 C-0.09761807 241.38104145 -0.09500015 231.90816202 -0.09374207 222.43527467 C-0.09155107 207.06776828 -0.0848897 191.70026718 -0.07543945 176.33276367 C-0.06626656 161.4007978 -0.05918513 146.46883336 -0.05493164 131.53686523 C-0.05453756 130.15726736 -0.05453756 130.15726736 -0.05413551 128.74979883 C-0.05283051 124.13597552 -0.05156679 119.52215221 -0.05032361 114.90832889 C-0.03994952 76.60554889 -0.02232991 38.30277479 0 0 Z M2 1 C2 101.98 2 202.96 2 307 C102.98 307 203.96 307 308 307 C308 206.02 308 105.04 308 1 C207.02 1 106.04 1 2 1 Z " fill="#BA7635" transform="translate(357,275)"/>
<path d="M0 0 C0.66 0 1.32 0 2 0 C2 100.98 2 201.96 2 306 C102.98 306 203.96 306 308 306 C308.33 306.66 308.66 307.32 309 308 C269.77964351 308.02286485 230.55928789 308.04049745 191.33892608 308.05106533 C186.7136623 308.05231611 182.08839853 308.05361042 177.46313477 308.05493164 C176.08186421 308.05532511 176.08186421 308.05532511 174.67268919 308.05572652 C159.74215314 308.06008354 144.81162091 308.06797126 129.88108713 308.0771528 C114.57280456 308.08648845 99.26452399 308.09205542 83.95623869 308.09408849 C74.50232797 308.09546391 65.04842807 308.09981547 55.59452068 308.10791647 C49.1207478 308.11318284 42.64698055 308.11480455 36.17320568 308.11350138 C32.43240714 308.11285783 28.69162758 308.11387742 24.95083237 308.11920547 C20.90491749 308.12492637 16.85904358 308.12300119 12.81312561 308.12025452 C11.01987676 308.12462378 11.01987676 308.12462378 9.19040066 308.12908131 C7.57808533 308.12609474 7.57808533 308.12609474 5.93319798 308.12304783 C4.9979468 308.12342755 4.06269563 308.12380727 3.09910351 308.1241985 C1 308 1 308 0 307 C-0.09714351 305.36317353 -0.12371573 303.72212586 -0.12304783 302.0824194 C-0.12503888 301.01102591 -0.12702993 299.93963241 -0.12908131 298.83577245 C-0.12616847 297.64416417 -0.12325563 296.45255588 -0.12025452 295.22483826 C-0.12110894 293.97033326 -0.12196337 292.71582826 -0.12284368 291.42330796 C-0.125091 287.92527275 -0.12106415 284.42726787 -0.11606562 280.92923653 C-0.11176468 277.16302941 -0.11320729 273.39682412 -0.1139679 269.63061523 C-0.11449336 263.10011321 -0.11134424 256.56962115 -0.10573006 250.03912163 C-0.09761806 240.59700646 -0.09500015 231.15489613 -0.09374207 221.71277786 C-0.09155107 206.39518576 -0.08488971 191.07759898 -0.07543945 175.76000977 C-0.06626656 160.8765465 -0.05918513 145.99308467 -0.05493164 131.10961914 C-0.05466892 130.19287422 -0.05440619 129.2761293 -0.05413551 128.33160423 C-0.05283051 123.732765 -0.05156679 119.13392576 -0.05032361 114.53508651 C-0.03994952 76.35672062 -0.02232992 38.17836066 0 0 Z " fill="#8D9B5F" transform="translate(715,276)"/>
</svg>
