<?xml version="1.0" standalone="no"?>
<!DOCTYPE svg PUBLIC "-//W3C//DTD SVG 20010904//EN"
 "http://www.w3.org/TR/2001/REC-SVG-20010904/DTD/svg10.dtd">
<svg version="1.0" xmlns="http://www.w3.org/2000/svg"
 width="2048.000000pt" height="1502.000000pt" viewBox="0 0 2048.000000 1502.000000"
 preserveAspectRatio="xMidYMid meet">
<metadata>
Created by potrace 1.16, written by Peter Selinger 2001-2019
</metadata>
<g transform="translate(0.000000,1502.000000) scale(0.100000,-0.100000)"
fill="#000000" stroke="none">
<path d="M9108 14340 c-80 -14 -183 -68 -232 -120 -118 -126 -146 -313 -71
-467 47 -95 158 -173 345 -243 170 -63 196 -74 265 -107 112 -55 157 -110 171
-211 10 -78 -10 -143 -62 -201 -54 -60 -122 -91 -218 -98 -123 -9 -220 29
-304 121 -40 44 -102 155 -102 184 0 6 -6 12 -13 12 -18 0 -150 -49 -161 -60
-5 -5 10 -46 37 -102 82 -168 198 -265 363 -304 95 -22 266 -15 349 14 126 46
222 136 266 249 32 85 31 244 -1 328 -50 129 -170 212 -457 319 -253 94 -320
146 -338 268 -15 97 41 200 133 244 53 26 165 30 238 9 106 -31 165 -87 218
-207 l25 -57 53 16 c29 9 64 19 78 23 32 9 30 32 -10 116 -61 127 -153 212
-275 255 -68 23 -221 33 -297 19z"/>
<path d="M980 14251 c0 -74 1 -79 23 -84 12 -2 113 -3 225 -2 l202 3 1 -41 c0
-23 0 -174 -1 -335 -1 -161 2 -462 6 -668 l7 -374 88 0 89 0 0 705 0 705 38 1
c20 0 121 0 223 -1 l186 -2 7 76 c4 42 4 81 1 86 -4 6 -208 10 -551 10 l-544
0 0 -79z"/>
<path d="M2550 13540 l0 -791 93 3 92 3 0 785 0 785 -92 3 -93 3 0 -791z"/>
<path d="M3728 13688 l-3 -643 -27 -58 c-23 -48 -34 -61 -70 -77 -58 -26 -139
-26 -194 1 -23 11 -59 41 -80 67 -21 26 -41 51 -44 55 -4 5 -39 -15 -79 -43
l-71 -52 33 -45 c38 -54 85 -93 158 -130 50 -26 62 -28 174 -28 102 0 127 3
167 22 109 50 185 158 208 291 7 45 10 266 8 672 l-3 605 -87 3 -87 3 -3 -643z"/>
<path d="M4525 14318 c-3 -7 -4 -362 -3 -788 l3 -775 90 0 90 0 5 368 5 368
338 0 c185 0 355 -1 377 -1 l40 0 2 -367 3 -368 90 0 90 0 3 782 2 783 -23 5
c-12 3 -54 5 -92 3 l-70 -3 -3 -332 -2 -333 -380 0 -380 0 -2 333 -3 332 -88
3 c-64 2 -89 -1 -92 -10z"/>
<path d="M6274 14316 c-3 -8 -4 -270 -1 -583 3 -486 6 -577 21 -631 64 -245
244 -372 531 -373 129 -1 213 15 300 56 91 43 129 72 181 142 52 69 81 150 94
264 10 82 12 1102 3 1127 -4 8 -31 12 -89 12 -46 0 -85 -1 -86 -2 -1 -2 -5
-271 -8 -598 l-5 -595 -24 -53 c-30 -67 -104 -134 -179 -163 -76 -29 -239 -33
-324 -6 -110 34 -195 124 -216 232 -8 40 -12 231 -12 616 0 499 -2 557 -16
563 -9 3 -49 6 -90 6 -56 0 -76 -4 -80 -14z"/>
<path d="M8040 13540 l0 -791 93 3 92 3 0 785 0 785 -92 3 -93 3 0 -791z"/>
<path d="M10984 14321 c-2 -2 -4 -37 -4 -78 l0 -73 225 0 225 0 1 -37 c1 -21
1 -338 -1 -705 l-2 -668 96 0 96 0 2 703 3 702 220 3 c121 2 221 4 221 5 1 1
4 35 6 74 l4 73 -544 2 c-299 2 -546 1 -548 -1z"/>
<path d="M13488 14329 c-1 -2 -4 -272 -7 -599 l-6 -595 -28 -57 c-33 -67 -90
-121 -166 -157 -51 -24 -66 -26 -181 -26 -105 1 -134 4 -181 23 -113 45 -181
133 -199 258 -5 39 -10 303 -10 607 l0 537 -91 0 -90 0 4 -582 c4 -635 4 -631
64 -755 36 -72 74 -115 144 -162 98 -66 178 -85 349 -85 111 0 159 4 204 18
149 45 249 123 306 239 55 113 59 164 60 775 l0 552 -69 0 c-38 0 -76 3 -85 6
-9 3 -17 5 -18 3z"/>
<path d="M15204 14323 l-81 -4 -7 -207 c-7 -211 -8 -1347 -1 -1353 2 -2 40 -3
84 -1 l81 4 0 674 c0 371 3 674 8 674 4 0 20 -24 36 -53 39 -68 725 -1211 757
-1259 29 -45 29 -45 102 -40 l57 4 0 778 0 778 -81 4 c-50 2 -83 -1 -86 -7 -2
-6 -2 -275 -1 -598 2 -323 1 -587 -3 -587 -3 0 -55 87 -117 193 -61 105 -219
374 -350 597 l-239 405 -39 1 c-21 0 -75 -1 -120 -3z"/>
<path d="M17258 14323 l-388 -3 0 -780 0 -780 480 0 480 0 0 75 0 75 -389 0
c-345 0 -390 2 -395 16 -8 21 -8 286 1 446 l6 128 259 2 260 3 1 75 2 75 -260
0 -260 0 -7 47 c-5 26 -7 139 -6 250 l3 203 45 7 c25 3 192 7 373 7 l327 1 0
75 0 75 -44 0 c-24 0 -56 1 -72 3 -16 2 -203 2 -416 0z"/>
<path d="M18413 14323 l-103 -4 0 -779 0 -780 85 0 85 0 0 683 1 682 30 -50
c16 -27 147 -246 290 -485 144 -239 313 -522 377 -628 64 -107 123 -197 132
-201 8 -4 41 -5 72 -3 l57 4 1 779 0 779 -85 0 -85 0 -1 -597 c0 -401 -3 -593
-10 -583 -6 8 -80 134 -166 280 -504 860 -535 910 -557 908 -11 -1 -67 -4
-123 -5z"/>
<path d="M14290 13540 l0 -780 95 0 95 0 -3 778 -2 777 -92 3 -93 3 0 -781z"/>
<path d="M12429 12161 c-109 -73 -335 -401 -464 -674 -140 -297 -171 -482
-100 -603 40 -68 86 -94 166 -94 109 0 215 45 407 174 62 42 120 76 128 76 21
0 51 -17 107 -62 43 -33 55 -38 102 -38 106 0 297 82 449 192 37 27 69 48 71
46 1 -2 10 -37 20 -78 35 -149 82 -197 180 -187 158 16 313 177 397 412 l31
86 -21 44 c-15 31 -30 47 -48 51 -31 8 -43 -4 -70 -66 -63 -149 -163 -301
-231 -352 -47 -36 -65 -35 -97 3 -34 39 -33 82 0 155 68 148 61 200 -23 179
-14 -3 -67 -46 -119 -96 -171 -163 -363 -259 -515 -259 -58 0 -72 4 -98 25
-56 47 -50 87 16 120 190 96 307 258 247 343 -56 81 -197 63 -287 -37 -48 -53
-70 -98 -101 -206 -31 -108 -43 -125 -130 -191 -136 -103 -301 -184 -393 -192
-45 -4 -55 -1 -77 21 -36 36 -48 90 -36 164 15 94 35 144 145 364 123 244 207
363 366 512 93 87 109 107 109 133 0 36 -26 64 -62 64 -13 0 -44 -13 -69 -29z
m439 -667 c2 -15 -13 -35 -50 -69 -101 -91 -131 -98 -80 -18 67 103 122 140
130 87z"/>
<path d="M5090 11590 c-238 -33 -698 -272 -906 -472 -98 -94 -134 -157 -134
-234 0 -42 6 -61 33 -100 43 -65 100 -94 183 -94 138 0 429 99 738 251 185 90
216 101 216 72 0 -11 -29 -93 -64 -184 -131 -336 -197 -510 -284 -749 -101
-273 -299 -861 -304 -900 -3 -22 1 -25 28 -28 44 -4 59 19 132 195 58 140 99
250 311 823 172 469 250 676 296 790 55 139 75 203 75 245 0 60 -57 82 -123
49 -18 -9 -99 -62 -182 -117 -159 -107 -300 -179 -430 -222 -246 -80 -407
-111 -453 -86 -76 41 62 236 273 386 99 71 336 188 465 229 145 47 216 49 283
6 83 -52 127 -71 160 -68 29 3 32 6 30 37 -2 50 -51 111 -114 143 -62 31 -135
40 -229 28z"/>
<path d="M14333 11531 c-44 -28 -85 -86 -146 -209 -56 -113 -70 -126 -172
-152 -55 -14 -85 -40 -85 -75 0 -18 7 -24 33 -29 40 -7 128 7 186 30 l44 17
20 -29 c68 -96 129 -127 247 -128 95 0 151 14 299 76 158 66 284 109 292 101
5 -5 13 -33 19 -62 13 -72 30 -103 62 -119 36 -17 67 -3 173 73 207 149 351
172 529 87 98 -47 149 -54 166 -21 22 41 8 62 -72 110 -194 117 -382 123 -611
20 -38 -17 -71 -31 -73 -31 -2 0 -4 22 -4 49 0 66 -17 110 -45 117 -29 7 -146
-39 -290 -116 -352 -186 -362 -190 -417 -190 -61 0 -146 42 -175 87 -20 30
-29 20 87 96 115 76 186 187 157 245 -21 44 -62 66 -130 70 -49 2 -69 -1 -94
-17z m77 -138 c0 -13 -74 -83 -87 -83 -23 0 -14 17 27 54 38 34 60 45 60 29z"/>
<path d="M7357 11514 c-16 -9 -58 -61 -98 -122 -39 -59 -82 -120 -96 -136 -35
-39 -145 -87 -216 -94 -67 -6 -97 12 -97 58 0 65 -11 89 -48 101 -74 24 -186
-9 -262 -77 -137 -124 -209 -384 -139 -501 61 -101 203 -26 322 169 21 35 43
81 49 103 6 22 13 42 14 44 2 2 23 -5 49 -14 54 -21 167 -16 227 9 21 9 39 16
42 16 3 0 2 -40 -1 -88 -7 -114 11 -181 67 -245 53 -60 92 -73 156 -51 107 36
303 192 523 418 51 53 97 96 101 96 4 0 5 -47 2 -105 -5 -106 5 -169 35 -232
17 -37 69 -73 104 -73 42 0 123 58 188 135 80 95 213 225 228 225 5 0 15 -28
22 -62 18 -89 66 -198 107 -247 54 -62 105 -85 189 -85 82 0 149 29 261 113
37 28 72 51 79 51 6 0 22 -22 35 -50 38 -82 59 -95 148 -95 71 0 83 4 157 43
44 23 140 89 213 147 74 58 137 105 141 105 3 0 14 -37 25 -82 19 -85 39 -128
61 -128 7 0 57 48 111 106 172 185 305 278 545 381 175 76 173 75 165 106 -22
88 -235 60 -431 -55 -64 -38 -123 -86 -210 -170 -66 -65 -123 -118 -127 -118
-5 0 -8 13 -8 29 0 16 -3 43 -6 60 -6 27 -10 31 -41 31 -43 0 -87 -23 -245
-126 -162 -106 -297 -182 -337 -190 -35 -7 -55 5 -76 47 -16 31 -22 21 97 176
72 93 122 186 133 244 6 32 3 41 -23 70 -27 30 -36 34 -82 34 -47 0 -55 -3
-89 -40 -28 -30 -48 -70 -80 -160 -24 -66 -54 -138 -67 -161 -53 -94 -201
-198 -322 -226 -49 -11 -54 -10 -76 11 -35 33 -80 123 -110 219 -41 130 -57
152 -114 152 -62 0 -114 -36 -277 -190 -88 -83 -164 -150 -171 -150 -19 0 -23
77 -13 226 9 120 8 146 -5 177 -8 21 -22 37 -31 37 -46 0 -133 -68 -400 -310
-246 -224 -349 -296 -383 -267 -27 22 -42 67 -42 124 0 121 47 235 176 425 41
61 74 118 74 128 0 45 -68 64 -123 34z m2043 -162 c0 -20 -51 -105 -70 -117
-16 -10 -9 23 20 89 19 46 50 63 50 28z m-2687 -194 l4 -73 -52 -90 c-92 -156
-172 -228 -177 -157 -8 122 35 244 109 313 46 43 93 79 103 79 4 0 10 -33 13
-72z"/>
<path d="M6140 11419 c-114 -22 -241 -122 -337 -266 -66 -100 -126 -235 -143
-321 -30 -149 27 -260 83 -164 11 18 54 117 97 221 82 201 118 266 181 330 73
73 140 86 261 51 43 -13 49 -12 68 5 27 24 25 47 -5 84 -41 48 -130 74 -205
60z"/>
<path d="M16228 11085 c-15 -8 -29 -24 -33 -34 -9 -29 18 -85 53 -110 63 -44
109 -16 119 73 8 66 -8 86 -65 86 -26 -1 -59 -7 -74 -15z"/>
<path d="M10221 9801 c-9 -6 -131 -408 -131 -434 0 -5 12 -7 27 -5 25 3 30 10
45 63 9 33 33 119 53 190 48 166 50 181 33 188 -8 3 -20 2 -27 -2z"/>
<path d="M6940 9586 l0 -216 30 0 29 0 3 98 3 97 100 0 100 0 3 -97 3 -98 29
0 30 0 0 216 0 215 -27 -3 c-28 -3 -28 -4 -33 -86 l-5 -84 -98 -1 -97 -2 -5
30 c-3 17 -6 55 -8 85 -2 52 -4 55 -29 58 l-28 3 0 -215z"/>
<path d="M7370 9586 l0 -215 23 -3 c12 -2 82 -2 155 0 l133 3 -3 27 c-2 21 -9
27 -28 28 -14 0 -69 1 -122 2 l-98 2 0 70 0 70 110 0 110 0 0 31 c0 25 -4 30
-22 29 -13 -1 -62 -2 -110 -1 l-88 1 0 55 0 55 120 0 120 0 0 29 0 29 -150 1
-150 2 0 -215z"/>
<path d="M7757 9793 c-4 -3 -7 -100 -7 -215 l0 -208 24 0 c22 0 23 4 30 86 3
47 3 123 0 168 -4 52 -3 77 3 71 5 -5 52 -75 103 -155 102 -158 112 -170 147
-170 l23 0 0 215 0 215 -25 0 -25 0 0 -160 c0 -89 -4 -160 -9 -160 -5 0 -22
21 -37 48 -40 69 -144 223 -167 250 -20 22 -47 29 -60 15z"/>
<path d="M8306 9790 c-91 -29 -140 -104 -140 -210 2 -155 115 -238 274 -200
28 7 64 23 81 37 27 23 29 29 29 99 l0 74 -37 0 c-21 0 -62 -3 -90 -6 -47 -6
-53 -9 -53 -30 0 -21 5 -24 43 -24 69 0 89 -9 85 -38 -7 -61 -120 -92 -195
-53 -57 29 -88 93 -79 163 9 66 18 82 64 113 63 43 156 29 192 -30 15 -24 26
-32 40 -28 11 3 20 12 20 20 0 29 -40 81 -75 97 -43 21 -120 28 -159 16z"/>
<path d="M8647 9793 c-4 -3 -7 -100 -7 -214 0 -183 2 -208 16 -211 9 -2 80 -1
158 2 l141 5 0 25 c0 24 0 25 -90 23 -49 -1 -107 0 -128 4 l-38 6 3 66 3 66
113 3 c112 3 112 3 112 27 0 25 -1 25 -100 26 -55 1 -106 2 -112 3 -9 1 -14
22 -16 58 l-3 57 123 3 c116 3 123 4 126 24 3 20 -3 21 -95 27 -126 9 -198 9
-206 0z"/>
<path d="M9027 9794 c-4 -4 -7 -101 -7 -216 l0 -208 135 0 135 0 0 25 c0 24
-1 24 -102 27 l-103 3 -5 185 c-5 177 -6 185 -25 188 -12 2 -24 0 -28 -4z"/>
<path d="M9478 9791 c-50 -16 -90 -53 -114 -105 -47 -101 -23 -213 60 -280 35
-29 44 -31 115 -31 65 0 83 4 113 24 63 43 83 84 86 175 2 69 -1 87 -20 121
-46 79 -156 123 -240 96z m133 -74 c103 -68 86 -250 -27 -287 -102 -34 -193
51 -181 169 7 63 29 99 78 123 46 24 89 22 130 -5z"/>
<path d="M10361 9688 c-58 -195 -89 -316 -83 -322 12 -13 24 -4 37 27 12 30
115 388 115 402 0 3 -8 5 -18 5 -14 0 -25 -23 -51 -112z"/>
<path d="M10770 9785 c0 -19 86 -363 100 -399 10 -28 49 -36 68 -13 5 6 24 66
41 132 17 66 37 140 45 165 l14 45 7 -30 c4 -16 26 -95 49 -175 41 -145 41
-145 71 -145 l30 0 52 190 c75 269 72 247 33 243 -38 -4 -38 -3 -85 -209 l-29
-127 -33 127 c-62 237 -50 211 -94 211 -38 0 -39 0 -54 -57 -38 -137 -64 -230
-71 -258 -7 -30 -7 -29 -16 15 -11 52 -57 257 -64 283 -7 22 -64 24 -64 2z"/>
<path d="M11370 9580 l0 -220 29 0 28 0 7 88 c3 48 4 143 1 212 -2 69 -5 128
-5 133 0 4 -13 7 -30 7 l-30 0 0 -220z"/>
<path d="M11520 9580 l0 -220 159 0 159 0 6 25 c4 14 4 30 1 35 -4 6 -62 10
-131 10 l-124 0 0 65 0 65 109 0 c105 0 109 1 113 23 9 44 2 47 -113 47 l-109
0 0 56 0 55 117 -2 c112 -1 117 -1 125 21 4 12 6 26 2 31 -3 5 -75 9 -160 9
l-154 0 0 -220z"/>
<path d="M11915 9718 c-3 -46 -5 -144 -3 -218 l3 -135 35 0 35 0 3 93 3 92 45
0 c52 0 69 -14 139 -122 42 -62 48 -68 80 -68 19 0 35 5 35 11 0 18 -66 122
-94 148 -28 27 -33 41 -13 41 16 1 51 31 66 57 29 55 -2 153 -55 173 -14 6
-81 10 -149 10 l-123 0 -7 -82z m245 9 c19 -9 26 -22 28 -49 4 -47 -9 -54
-115 -60 l-83 -5 0 64 0 63 73 0 c39 0 83 -6 97 -13z"/>
<path d="M12340 9581 l0 -221 85 0 c129 0 178 14 219 62 82 95 68 283 -26 350
-29 20 -46 23 -155 27 l-123 3 0 -221z m245 129 c59 -55 58 -198 0 -256 -21
-21 -33 -24 -100 -24 l-75 0 0 156 0 157 75 -5 c61 -4 80 -9 100 -28z"/>
<path d="M12770 9580 l0 -221 158 3 157 3 3 33 3 32 -125 0 -126 0 0 65 0 65
110 0 110 0 0 35 0 35 -109 0 c-122 0 -120 -1 -113 72 l4 38 118 0 c123 0 139
6 124 45 -5 12 -32 15 -160 15 l-154 0 0 -220z"/>
<path d="M13157 9793 c-4 -3 -7 -102 -7 -220 l0 -213 35 0 35 0 0 157 0 157
103 -154 c94 -143 104 -155 132 -155 l30 0 3 218 2 217 -30 0 -30 0 -2 -112
c-1 -62 -1 -133 -1 -158 1 -54 10 -64 -118 133 -80 121 -94 137 -118 137 -15
0 -31 -3 -34 -7z"/>
<path d="M14327 7092 l-157 -3 2 -2627 3 -2627 2628 -3 2627 -2 1 957 c2 1438
-2 4298 -6 4301 -4 4 -4885 8 -5098 4z m472 -2432 c80 -23 131 -112 131 -230
0 -95 -13 -141 -52 -186 -64 -72 -141 -85 -220 -35 -114 72 -134 285 -37 395
53 59 107 77 178 56z m3063 0 c44 -13 101 -73 119 -126 7 -22 13 -73 13 -114
1 -63 -4 -85 -27 -133 -74 -151 -257 -140 -324 21 -17 41 -19 166 -2 221 16
55 65 109 114 126 49 17 60 18 107 5z m-2659 -52 c18 -29 67 -110 107 -180 41
-71 78 -128 82 -128 4 0 8 64 8 143 0 163 7 217 26 217 12 0 14 -43 14 -236 0
-214 -2 -235 -17 -232 -9 2 -67 87 -130 193 -63 104 -118 194 -124 200 -22 22
-29 -27 -29 -208 0 -174 -1 -188 -17 -185 -17 3 -18 22 -19 228 0 124 1 228 3
233 2 4 17 7 34 7 24 0 35 -8 62 -52z m679 29 c111 -55 144 -273 56 -373 -45
-51 -88 -66 -193 -68 l-90 -1 -3 233 -2 234 97 -4 c68 -2 109 -9 135 -21z
m558 8 c0 -12 -19 -15 -115 -15 l-116 0 3 -87 3 -88 78 -5 c104 -7 104 -24 0
-28 l-83 -3 0 -93 0 -93 31 -7 c17 -3 71 -6 120 -6 72 0 89 -3 89 -15 0 -13
-22 -15 -140 -15 l-140 0 0 235 0 235 135 0 c113 0 135 -2 135 -15z m402 5
c50 -14 88 -61 88 -108 0 -45 -31 -99 -65 -112 -14 -5 -25 -16 -25 -24 0 -8
22 -58 49 -112 28 -54 48 -101 45 -106 -12 -20 -43 17 -94 114 -55 103 -55
103 -96 106 -22 2 -52 -2 -67 -7 -27 -10 -27 -11 -27 -111 0 -79 -3 -100 -14
-100 -8 0 -16 10 -19 23 -8 33 -9 432 -1 440 11 11 184 8 226 -3z m320 -92 l3
-103 120 0 120 0 3 103 c2 94 4 102 22 102 19 0 20 -8 20 -234 0 -129 -4 -237
-8 -240 -23 -14 -31 16 -34 119 l-3 110 -122 3 -123 3 0 -116 c0 -108 -1 -115
-20 -115 -19 0 -20 7 -20 235 0 227 1 235 20 235 18 0 20 -8 22 -102z m1050
-89 l3 -191 33 -29 c26 -24 41 -29 82 -29 108 0 130 32 130 192 0 159 10 248
26 248 11 0 14 -36 14 -187 0 -210 -6 -232 -72 -274 -50 -30 -152 -24 -201 14
-50 38 -57 72 -57 275 0 164 1 172 19 172 19 0 20 -10 23 -191z m738 165 c19
-11 48 -42 65 -69 28 -45 30 -56 30 -139 0 -100 -12 -134 -66 -186 -38 -35
-109 -53 -199 -48 l-65 3 -3 220 c-1 121 0 226 3 233 9 23 191 12 235 -14z"/>
<path d="M14688 4614 c-15 -8 -40 -36 -55 -62 -24 -40 -28 -57 -27 -122 1
-129 56 -211 143 -212 84 -1 133 64 139 189 4 74 2 88 -21 135 -40 81 -111
110 -179 72z"/>
<path d="M17747 4612 c-70 -42 -100 -200 -57 -300 54 -126 197 -124 246 3 21
57 16 194 -10 243 -34 65 -119 91 -179 54z"/>
<path d="M15697 4623 c-4 -3 -7 -91 -7 -195 l0 -188 28 -11 c19 -7 43 -7 80 0
97 19 140 69 149 170 11 120 -40 203 -136 221 -62 12 -105 13 -114 3z"/>
<path d="M16657 4616 c-9 -22 -9 -123 -1 -153 6 -21 12 -23 75 -23 119 0 169
37 155 113 -9 50 -41 67 -140 74 -72 5 -84 4 -89 -11z"/>
<path d="M18763 4624 c-10 -4 -13 -53 -13 -194 0 -218 -1 -216 86 -207 101 10
157 65 169 162 13 99 -22 187 -86 220 -30 16 -135 29 -156 19z"/>
<path d="M984 7077 c-2 -7 -3 -1188 -2 -2624 l3 -2612 2620 -3 2620 -3 3 2628
2 2627 -2620 0 c-2101 -1 -2622 -3 -2626 -13z m1174 -2421 c76 -40 114 -120
114 -239 0 -146 -74 -242 -187 -242 -110 0 -177 85 -183 232 -6 130 27 203
113 247 37 20 107 21 143 2z m620 6 c10 -7 12 -62 10 -241 -1 -128 -5 -234 -9
-237 -20 -12 -48 23 -148 190 -60 99 -117 190 -125 201 -14 18 -15 2 -16 -182
0 -111 -4 -204 -9 -207 -5 -4 -16 -3 -25 0 -14 5 -16 36 -16 241 l0 234 38 -3
c36 -3 39 -7 99 -108 99 -167 145 -241 148 -238 2 2 5 80 6 173 3 179 9 201
47 177z m629 0 c6 -4 30 -75 53 -157 53 -193 50 -185 59 -185 4 0 30 73 57
161 27 89 54 168 60 177 23 32 40 1 88 -159 26 -90 52 -168 56 -173 9 -9 27
46 76 228 28 102 45 129 68 106 10 -10 -22 -140 -89 -360 -26 -84 -36 -105
-51 -105 -19 0 -22 7 -104 294 -12 41 -25 70 -30 65 -5 -5 -29 -80 -54 -166
-59 -201 -62 -209 -80 -202 -8 3 -16 13 -19 22 -3 9 -32 112 -66 227 -33 116
-61 216 -61 223 0 13 19 16 37 4z m-142 -22 c0 -12 -15 -16 -67 -18 l-68 -3 0
-214 0 -215 -30 0 -30 0 0 215 0 215 -69 0 c-39 0 -73 5 -76 10 -16 26 12 30
173 28 141 -3 167 -5 167 -18z m1105 0 c0 -19 -7 -20 -115 -20 l-115 0 0 -83
0 -84 53 2 c73 4 117 -5 117 -21 0 -15 -11 -16 -107 -14 l-63 1 0 -95 0 -96
119 0 c93 0 120 -3 124 -14 3 -8 3 -17 0 -20 -4 -3 -70 -6 -148 -6 l-142 0 -6
73 c-4 58 -3 359 2 390 0 4 64 7 141 7 133 0 140 -1 140 -20z m426 4 c72 -34
86 -141 26 -195 -16 -15 -36 -29 -43 -31 -10 -3 -1 -32 36 -113 28 -59 52
-112 53 -117 7 -15 -35 -8 -50 10 -9 9 -37 59 -62 110 l-46 92 -60 0 -60 0 -1
-67 c-1 -38 -1 -84 0 -104 3 -40 -8 -53 -33 -43 -14 5 -16 35 -16 240 l0 234
111 0 c82 0 120 -4 145 -16z m483 3 c64 -33 84 -122 43 -189 -29 -47 -59 -58
-152 -58 l-80 0 0 -105 0 -105 -25 0 -25 0 0 235 0 235 108 0 c65 0 116 -5
131 -13z"/>
<path d="M2030 4612 c-48 -26 -74 -82 -78 -167 -5 -91 11 -150 53 -192 28 -28
40 -33 78 -33 93 0 142 79 136 222 -3 70 -8 91 -29 120 -45 67 -97 83 -160 50z"/>
<path d="M4586 4562 c-4 -31 -4 -72 0 -90 6 -32 7 -32 68 -31 117 1 166 37
152 113 -9 48 -48 66 -144 66 l-69 0 -7 -58z"/>
<path d="M5090 4529 l0 -91 76 4 c69 3 79 6 100 31 25 29 31 75 14 107 -13 25
-62 40 -131 40 l-59 0 0 -91z"/>
<path d="M7616 7083 c-9 -9 -6 -5226 3 -5241 5 -9 635 -11 2629 -10 l2622 3 6
2490 c4 1370 4 2552 -1 2628 l-7 137 -2622 0 c-1443 0 -2626 -3 -2630 -7z
m3847 -2456 c37 -28 63 -77 54 -102 -9 -22 -33 -8 -47 26 -19 45 -56 69 -107
69 -83 0 -133 -77 -133 -205 0 -119 41 -191 117 -204 76 -14 143 40 143 117
l0 32 -55 0 c-49 0 -55 2 -55 20 0 19 5 21 78 18 l77 -3 3 -90 c3 -97 -2 -135
-19 -135 -6 0 -13 9 -16 20 -3 11 -8 20 -12 20 -4 0 -24 -9 -46 -20 -65 -33
-143 -24 -193 23 -48 45 -66 95 -66 192 -1 81 2 96 29 150 24 47 39 64 75 83
58 31 124 26 173 -11z m-2387 -82 c112 -346 121 -385 85 -366 -11 6 -28 39
-41 81 l-23 71 -91 -3 -90 -3 -21 -70 c-17 -56 -26 -71 -43 -73 -12 -2 -22 0
-22 4 0 8 125 399 141 442 7 19 15 23 41 20 31 -3 32 -6 64 -103z m448 63 c22
-62 126 -405 126 -417 0 -6 -7 -11 -15 -11 -17 0 -40 40 -50 90 -12 56 -19 60
-114 60 l-86 0 -23 -74 c-22 -69 -43 -98 -57 -76 -3 5 22 98 56 207 33 109 65
213 70 231 9 28 14 32 44 32 30 0 35 -4 49 -42z m366 15 c12 -16 63 -97 112
-180 49 -84 94 -150 99 -147 5 3 9 60 9 127 0 156 8 227 26 227 11 0 14 -43
14 -235 0 -217 -1 -235 -18 -235 -12 0 -51 57 -126 183 -111 185 -132 217
-148 217 -4 0 -8 -90 -8 -200 0 -164 -2 -200 -14 -200 -8 0 -17 7 -20 16 -8
21 -8 383 0 423 8 41 44 42 74 4z m510 -187 c0 -186 2 -215 16 -220 9 -3 58
-6 110 -6 77 0 94 -3 94 -15 0 -13 -21 -15 -130 -15 l-130 0 0 219 c0 121 3
226 6 235 3 9 12 16 20 16 12 0 14 -38 14 -214z m640 199 c0 -12 -22 -15 -112
-17 l-113 -3 0 -85 0 -85 79 -5 c49 -3 81 -10 83 -17 3 -9 -19 -13 -79 -15
l-83 -3 -3 -91 c-3 -109 -11 -104 146 -104 79 0 103 -3 100 -12 -3 -10 -44
-14 -146 -16 l-142 -3 0 236 0 235 135 0 c112 0 135 -3 135 -15z"/>
<path d="M8972 4518 c-49 -160 -51 -152 36 -156 64 -3 72 -1 72 15 0 27 -57
224 -67 234 -6 6 -22 -29 -41 -93z"/>
<path d="M9461 4593 c-10 -20 -61 -204 -61 -222 0 -7 27 -11 76 -11 l77 0 -7
33 c-12 60 -61 217 -68 217 -4 0 -11 -8 -17 -17z"/>
<path d="M7890 1405 l0 -65 65 0 65 0 0 65 0 65 -65 0 -65 0 0 -65z"/>
<path d="M8187 1464 c-4 -4 -7 -34 -7 -66 l0 -58 68 0 68 0 -2 63 -1 62 -59 3
c-33 2 -63 0 -67 -4z"/>
<path d="M8479 1458 c-5 -15 -5 -274 -1 -671 l2 -278 63 3 62 3 5 245 c5 234
6 246 28 277 26 37 95 73 140 73 51 0 99 -25 119 -62 15 -29 18 -67 21 -286
l4 -253 62 3 61 3 0 265 c0 286 -4 313 -53 372 -62 73 -199 100 -285 57 -23
-12 -53 -31 -67 -41 l-25 -20 -5 159 -5 158 -61 3 c-44 2 -63 -1 -65 -10z"/>
<path d="M9940 1405 l0 -65 65 0 66 0 -3 63 -3 62 -62 3 -63 3 0 -66z"/>
<path d="M12427 1463 c-4 -3 -7 -32 -7 -64 0 -65 2 -66 81 -61 l49 4 0 64 0
64 -58 0 c-32 0 -62 -3 -65 -7z"/>
<path d="M16004 1457 c-2 -7 -3 -222 -2 -478 l3 -464 63 -3 62 -3 0 481 0 480
-60 0 c-41 0 -62 -4 -66 -13z"/>
<path d="M7608 1413 l-58 -36 0 -85 c0 -71 -2 -83 -15 -78 -8 3 -27 1 -41 -4
-23 -9 -25 -14 -22 -57 3 -47 4 -48 39 -51 l37 -3 3 -252 c4 -252 4 -253 29
-285 14 -17 44 -41 67 -52 35 -18 52 -20 103 -14 34 4 64 12 66 18 2 6 -2 31
-10 56 -13 44 -14 45 -55 46 -26 0 -46 6 -52 15 -7 12 -14 165 -11 279 0 19 1
70 1 113 l1 79 33 -3 c76 -5 77 -4 77 56 l0 55 -55 0 -55 0 0 120 c0 90 -3
120 -12 120 -7 -1 -39 -17 -70 -37z"/>
<path d="M11411 1420 c-24 -16 -46 -31 -49 -34 -2 -3 -5 -40 -6 -83 -1 -70 -3
-78 -21 -81 -66 -10 -65 -9 -65 -67 l0 -54 43 -3 c50 -4 45 28 46 -286 l1
-232 34 -38 c33 -36 36 -37 116 -40 47 -3 86 0 92 6 6 6 7 30 3 62 l-7 52 -35
-5 c-28 -5 -40 -1 -59 18 -24 24 -24 25 -24 245 l0 220 60 0 61 0 -3 58 -3 57
-55 0 -55 0 -3 118 c-2 84 -6 117 -15 116 -7 0 -32 -13 -56 -29z"/>
<path d="M10350 1211 c-96 -34 -162 -132 -144 -214 23 -110 65 -139 294 -202
52 -14 103 -33 112 -42 26 -24 22 -66 -9 -97 -33 -34 -57 -39 -143 -34 -63 3
-73 7 -104 37 -18 18 -37 47 -40 63 -6 28 -9 30 -37 24 -17 -3 -45 -6 -62 -6
-29 0 -29 -1 -23 -41 12 -76 53 -129 131 -172 34 -19 56 -22 150 -22 105 0
113 2 165 31 31 17 68 49 84 71 48 69 48 175 -1 233 -35 42 -78 62 -213 99
-167 46 -182 54 -178 93 4 45 44 71 117 76 74 5 126 -17 149 -65 15 -31 19
-33 66 -33 76 0 83 8 62 65 -10 25 -29 59 -42 74 -58 70 -225 101 -334 62z"/>
<path d="M12951 1215 c-24 -7 -61 -28 -82 -45 l-39 -31 0 35 c0 40 -19 50 -81
44 l-34 -3 -3 -352 -2 -353 64 0 64 0 4 238 c4 260 7 275 68 325 32 28 103 43
145 33 14 -4 40 -19 58 -35 l32 -29 3 -266 3 -266 64 0 65 0 0 268 c0 303 -6
339 -66 391 -62 55 -173 74 -263 46z"/>
<path d="M13623 1211 c-96 -33 -159 -97 -194 -197 -31 -87 -24 -256 12 -334
30 -64 72 -109 137 -147 40 -24 60 -28 143 -31 81 -4 103 -1 143 17 68 30 121
75 150 128 40 71 40 72 -56 88 -35 5 -39 3 -63 -34 -33 -53 -88 -81 -160 -81
-88 0 -150 45 -180 129 -30 87 -47 81 234 81 231 0 250 1 255 18 11 34 -12
163 -39 218 -65 132 -234 197 -382 145z m198 -124 c44 -23 88 -83 89 -119 0
-17 -15 -18 -179 -18 -99 0 -182 4 -185 8 -3 5 4 27 15 49 46 93 165 130 260
80z"/>
<path d="M14417 1221 c-15 -5 -50 -25 -77 -45 l-50 -36 0 35 c0 39 -19 49 -81
43 l-34 -3 -3 -353 -2 -353 67 3 68 3 3 230 c1 127 7 244 13 262 15 47 70 90
123 98 59 9 89 1 129 -34 l32 -29 3 -267 3 -266 67 3 67 3 0 265 c-1 284 -5
315 -52 371 -40 47 -98 72 -178 75 -38 2 -82 -1 -98 -5z"/>
<path d="M15530 1221 c-40 -13 -84 -37 -104 -60 -27 -30 -36 -26 -36 14 0 31
-3 35 -34 40 -18 4 -43 5 -55 3 l-22 -3 0 -350 0 -350 63 0 63 0 5 240 c4 197
8 245 21 270 42 76 137 106 215 69 65 -31 69 -49 71 -329 l3 -250 62 0 63 0 0
265 c0 296 -6 328 -68 387 -54 52 -169 77 -247 54z"/>
<path d="M4320 1204 c0 -9 46 -157 101 -328 56 -171 105 -322 108 -336 7 -22
14 -25 59 -28 52 -3 53 -3 68 35 9 21 42 133 73 250 30 116 58 210 60 207 3
-2 34 -113 71 -247 l66 -242 48 -3 c27 -2 53 1 59 7 6 6 61 160 123 343 62
183 113 326 113 317 1 -14 88 -287 178 -556 l38 -113 51 0 52 0 16 48 c20 62
68 235 96 347 25 99 39 134 40 100 0 -19 60 -245 110 -417 l23 -78 49 0 c47 0
50 1 67 40 10 22 62 172 117 334 54 162 102 289 105 283 4 -7 53 -157 110
-335 l103 -323 54 3 55 3 31 105 c18 58 50 173 71 256 l39 152 37 -142 c20
-77 52 -194 70 -259 l33 -118 50 3 c48 3 52 5 69 41 23 49 217 631 217 651 0
12 -11 15 -55 12 -30 -1 -57 -5 -60 -8 -6 -6 -67 -196 -125 -388 -35 -115 -38
-122 -45 -90 -11 56 -94 359 -116 428 l-21 62 -43 0 c-23 0 -47 -6 -52 -12
-17 -22 -123 -375 -149 -498 l-7 -35 -10 40 c-17 77 -129 470 -138 488 -9 16
-23 17 -123 16 l-113 -3 -43 -130 c-24 -72 -60 -188 -80 -259 l-37 -127 -22
82 c-72 267 -115 415 -124 426 -6 8 -27 12 -56 10 l-46 -3 -42 -140 c-24 -76
-57 -195 -74 -263 l-32 -123 -74 258 c-40 141 -79 261 -86 265 -15 10 -208 10
-223 0 -9 -6 -132 -388 -150 -465 -9 -41 -21 -41 -27 -1 -8 46 -117 434 -129
457 -6 12 -21 17 -54 17 -41 0 -46 -3 -59 -33 -15 -36 -108 -356 -129 -445
-13 -54 -14 -55 -21 -27 -4 17 -37 136 -74 265 l-67 235 -62 3 c-53 3 -62 0
-62 -14z"/>
<path d="M7897 1213 c-4 -3 -7 -163 -7 -355 l0 -348 65 0 65 0 0 349 0 348
-37 7 c-49 8 -78 8 -86 -1z"/>
<path d="M8184 1211 c-2 -2 -4 -184 -4 -403 0 -461 -1 -465 -71 -455 -45 6
-54 -4 -65 -70 -5 -36 -4 -41 17 -46 42 -11 119 -7 147 7 42 22 79 67 91 111
5 22 13 223 17 448 l7 407 -34 2 c-75 4 -100 3 -105 -1z"/>
<path d="M9203 1204 c-3 -8 -4 -131 -1 -272 4 -231 6 -262 25 -302 37 -84 117
-132 218 -133 70 0 115 18 170 68 21 19 39 35 41 35 3 0 3 -19 2 -42 l-3 -43
55 0 55 0 3 347 2 348 -23 5 c-13 4 -41 5 -63 3 l-39 -3 -5 -240 c-5 -229 -6
-242 -28 -277 -34 -54 -78 -78 -145 -78 -49 0 -60 4 -91 34 -41 38 -39 18 -36
362 l2 191 -24 6 c-45 13 -108 8 -115 -9z"/>
<path d="M9940 864 l0 -354 65 0 65 0 -2 353 -3 352 -62 1 -63 1 0 -353z"/>
<path d="M11690 953 c0 -153 5 -284 10 -305 24 -84 118 -148 220 -148 79 0
121 15 174 61 l46 41 0 -46 0 -46 55 0 54 0 3 341 c2 188 0 346 -3 351 -4 6
-33 11 -65 12 l-59 1 -1 -215 c0 -118 -4 -232 -8 -252 -8 -43 -46 -92 -87
-113 -34 -18 -108 -19 -143 -3 -58 26 -61 40 -66 323 l-5 260 -62 3 -63 3 0
-268z"/>
<path d="M12426 1213 c-3 -4 -6 -163 -6 -355 l0 -348 65 0 65 0 0 349 0 349
-37 5 c-52 7 -80 7 -87 0z"/>
<path d="M10850 850 l0 -60 183 2 182 3 3 58 3 57 -186 0 -185 0 0 -60z"/>
<path d="M7200 580 l0 -70 70 0 70 0 0 64 c0 72 0 72 -92 75 l-48 2 0 -71z"/>
<path d="M14940 575 l0 -65 70 0 70 0 0 65 0 65 -70 0 -70 0 0 -65z"/>
</g>
</svg>
