<svg viewBox="0 0 200 200" xmlns="http://www.w3.org/2000/svg">
  <!-- More irregular tree rings with rotation -->
  <ellipse cx="105" cy="95" rx="90" ry="93" fill="none" stroke="#6b7c3e" stroke-width="4.2" opacity="0.82" transform="rotate(-8 100 100)"/>
  <ellipse cx="102" cy="98" rx="82" ry="85" fill="none" stroke="#5a6b3a" stroke-width="2.3" opacity="0.72" transform="rotate(5 100 100)"/>
  <ellipse cx="104" cy="96" rx="74" ry="76" fill="none" stroke="#6b7c3e" stroke-width="3.6" opacity="0.78" transform="rotate(-3 100 100)"/>
  <ellipse cx="101" cy="99" rx="65" ry="68" fill="none" stroke="#4a5b2a" stroke-width="2" opacity="0.7" transform="rotate(7 100 100)"/>
  <ellipse cx="103" cy="97" rx="56" ry="59" fill="none" stroke="#6b7c3e" stroke-width="3.2" opacity="0.8" transform="rotate(-5 100 100)"/>
  <ellipse cx="100" cy="100" rx="48" ry="51" fill="none" stroke="#5a6b3a" stroke-width="2.8" opacity="0.75" transform="rotate(4 100 100)"/>
  <ellipse cx="102" cy="98" rx="40" ry="43" fill="none" stroke="#6b7c3e" stroke-width="3.5" opacity="0.82" transform="rotate(-6 100 100)"/>
  <ellipse cx="99" cy="101" rx="32" ry="35" fill="none" stroke="#4a5b2a" stroke-width="2.4" opacity="0.73" transform="rotate(8 100 100)"/>
  <ellipse cx="101" cy="99" rx="25" ry="27" fill="none" stroke="#6b7c3e" stroke-width="3" opacity="0.78" transform="rotate(-4 100 100)"/>
  <ellipse cx="100" cy="100" rx="18" ry="20" fill="none" stroke="#5a6b3a" stroke-width="2.6" opacity="0.8" transform="rotate(3 100 100)"/>
  <ellipse cx="102" cy="98" rx="12" ry="13" fill="none" stroke="#6b7c3e" stroke-width="2.2" opacity="0.75" transform="rotate(-2 100 100)"/>
  
  <!-- Radial cracks -->
  <path d="M 100,5 L 100,90" stroke="#5a6b3a" stroke-width="0.9" opacity="0.45" transform="rotate(25 100 100)"/>
  <path d="M 100,5 L 100,90" stroke="#5a6b3a" stroke-width="0.7" opacity="0.38" transform="rotate(-15 100 100)"/>
</svg>
