<svg viewBox="0 0 200 200" xmlns="http://www.w3.org/2000/svg">
  <!-- Wide varied tree rings -->
  <ellipse cx="97" cy="105" rx="94" ry="90" fill="none" stroke="#5a6b3a" stroke-width="4.5" opacity="0.85" transform="rotate(12 100 100)"/>
  <ellipse cx="102" cy="98" rx="85" ry="82" fill="none" stroke="#6b7c3e" stroke-width="2.5" opacity="0.73" transform="rotate(-8 100 100)"/>
  <ellipse cx="99" cy="102" rx="76" ry="73" fill="none" stroke="#4a5b2a" stroke-width="3.8" opacity="0.82" transform="rotate(6 100 100)"/>
  <ellipse cx="103" cy="97" rx="67" ry="64" fill="none" stroke="#6b7c3e" stroke-width="2.2" opacity="0.7" transform="rotate(-10 100 100)"/>
  <ellipse cx="98" cy="103" rx="58" ry="55" fill="none" stroke="#5a6b3a" stroke-width="4" opacity="0.8" transform="rotate(9 100 100)"/>
  <ellipse cx="102" cy="98" rx="49" ry="47" fill="none" stroke="#6b7c3e" stroke-width="2.8" opacity="0.75" transform="rotate(-7 100 100)"/>
  <ellipse cx="99" cy="101" rx="40" ry="38" fill="none" stroke="#4a5b2a" stroke-width="3.4" opacity="0.83" transform="rotate(5 100 100)"/>
  <ellipse cx="103" cy="97" rx="32" ry="30" fill="none" stroke="#6b7c3e" stroke-width="2.4" opacity="0.72" transform="rotate(-4 100 100)"/>
  <ellipse cx="100" cy="100" rx="24" ry="23" fill="none" stroke="#5a6b3a" stroke-width="3" opacity="0.78" transform="rotate(3 100 100)"/>
  <ellipse cx="102" cy="98" rx="17" ry="16" fill="none" stroke="#6b7c3e" stroke-width="2.5" opacity="0.75" transform="rotate(-2 100 100)"/>
  <ellipse cx="100" cy="100" rx="11" ry="10" fill="none" stroke="#4a5b2a" stroke-width="2.2" opacity="0.8"/>
  
  <!-- Growth lines -->
  <path d="M 15,100 L 90,100" stroke="#5a6b3a" stroke-width="0.8" opacity="0.4" transform="rotate(35 100 100)"/>
  <path d="M 15,100 L 90,100" stroke="#5a6b3a" stroke-width="0.6" opacity="0.35" transform="rotate(-28 100 100)"/>
  <path d="M 15,100 L 90,100" stroke="#5a6b3a" stroke-width="0.7" opacity="0.38" transform="rotate(60 100 100)"/>
</svg>
