<svg viewBox="0 0 200 200" xmlns="http://www.w3.org/2000/svg">
  <!-- Realistic tree rings with varied thickness and irregular spacing -->
  <ellipse cx="92" cy="105" rx="92" ry="95" fill="none" stroke="#5a6b3a" stroke-width="3.5" opacity="0.8"/>
  <ellipse cx="95" cy="102" rx="85" ry="88" fill="none" stroke="#6b7c3e" stroke-width="2" opacity="0.75"/>
  <ellipse cx="93" cy="104" rx="78" ry="80" fill="none" stroke="#5a6b3a" stroke-width="4" opacity="0.8"/>
  <ellipse cx="96" cy="101" rx="69" ry="72" fill="none" stroke="#6b7c3e" stroke-width="1.8" opacity="0.7"/>
  <ellipse cx="94" cy="103" rx="62" ry="65" fill="none" stroke="#4a5b2a" stroke-width="3.2" opacity="0.85"/>
  <ellipse cx="97" cy="100" rx="54" ry="57" fill="none" stroke="#6b7c3e" stroke-width="2.5" opacity="0.75"/>
  <ellipse cx="95" cy="102" rx="47" ry="50" fill="none" stroke="#5a6b3a" stroke-width="3.8" opacity="0.8"/>
  <ellipse cx="98" cy="99" rx="39" ry="42" fill="none" stroke="#6b7c3e" stroke-width="2" opacity="0.7"/>
  <ellipse cx="96" cy="101" rx="32" ry="35" fill="none" stroke="#4a5b2a" stroke-width="3" opacity="0.85"/>
  <ellipse cx="99" cy="98" rx="25" ry="28" fill="none" stroke="#6b7c3e" stroke-width="2.2" opacity="0.75"/>
  <ellipse cx="97" cy="100" rx="19" ry="21" fill="none" stroke="#5a6b3a" stroke-width="2.8" opacity="0.8"/>
  <ellipse cx="100" cy="97" rx="13" ry="15" fill="none" stroke="#6b7c3e" stroke-width="2" opacity="0.75"/>
  <ellipse cx="98" cy="99" rx="8" ry="9" fill="none" stroke="#4a5b2a" stroke-width="2.5" opacity="0.85"/>
  
  <!-- Add some cracks/growth lines for realism -->
  <path d="M 100,10 L 98,95" stroke="#5a6b3a" stroke-width="0.8" opacity="0.4"/>
  <path d="M 185,100 L 105,98" stroke="#5a6b3a" stroke-width="0.6" opacity="0.3"/>
  <path d="M 100,190 L 102,105" stroke="#5a6b3a" stroke-width="0.7" opacity="0.35"/>
</svg>
